<svg width="145" height="47" viewBox="0 0 145 47" fill="none" xmlns="http://www.w3.org/2000/svg">
<path d="M33 34.75V30.25C33 27.7647 30.9853 25.75 28.5 25.75C26.0147 25.75 24 27.7647 24 30.25V34.75M38.625 21.4191V30.2127C38.625 32.7186 36.6103 34.75 34.125 34.75H22.875C20.3897 34.75 18.375 32.7186 18.375 30.2127V21.4191C18.375 20.0568 18.9821 18.7666 20.0286 17.9048L25.6536 13.273C27.3101 11.909 29.6899 11.909 31.3464 13.273L36.9714 17.9048C38.0179 18.7666 38.625 20.0568 38.625 21.4191Z" stroke="#ED836A" stroke-opacity="0.9" stroke-width="1.5"/>
<path d="M58.84 31.5V17.54H61.86V29.04H67.86V31.5H58.84ZM73.0922 17.54V26.38C73.0922 26.82 73.1055 27.2267 73.1322 27.6C73.1722 27.96 73.2522 28.2667 73.3722 28.52C73.5055 28.7733 73.6989 28.9733 73.9522 29.12C74.2055 29.2533 74.5522 29.32 74.9922 29.32C75.4322 29.32 75.7789 29.2533 76.0322 29.12C76.2855 28.9733 76.4722 28.7733 76.5922 28.52C76.7255 28.2667 76.8055 27.96 76.8322 27.6C76.8722 27.2267 76.8922 26.82 76.8922 26.38V17.54H79.8922V25.98C79.8922 26.94 79.8255 27.78 79.6922 28.5C79.5722 29.22 79.3322 29.82 78.9722 30.3C78.6122 30.78 78.1122 31.14 77.4722 31.38C76.8322 31.62 76.0055 31.74 74.9922 31.74C73.9789 31.74 73.1522 31.62 72.5122 31.38C71.8722 31.14 71.3722 30.78 71.0122 30.3C70.6522 29.82 70.4055 29.22 70.2722 28.5C70.1522 27.78 70.0922 26.94 70.0922 25.98V17.54H73.0922ZM89.6044 25.28L89.7644 21.38H89.5844L86.9844 28.56L84.3844 21.38H84.2044L84.3644 25.28V31.5H81.7644V17.54H85.3044L87.0244 22.24H87.1844L88.9044 17.54H92.2044V31.5H89.6044V25.28ZM94.4766 31.5V29.28H97.4766V19.76H94.4766V17.54H103.477V19.76H100.477V29.28H103.477V31.5H94.4766Z" fill="#020202"/>
</svg>
