<svg width="27" height="27" viewBox="0 0 27 27" fill="none" xmlns="http://www.w3.org/2000/svg">
<path d="M18.9225 17.4206C18.512 17.2143 18.012 17.3744 17.7975 17.7806C17.5993 18.1945 17.7632 18.691 18.1688 18.9056C19.1588 19.4119 19.7213 20.0306 19.7213 20.6269C19.7213 21.8981 17.0663 23.3156 13.5113 23.3156C9.95625 23.3156 7.29 21.9094 7.29 20.6719C7.29 20.0869 7.8525 19.4569 8.8425 18.9506C9.13939 18.8316 9.34344 18.5549 9.36944 18.2361C9.39545 17.9173 9.23895 17.6112 8.96528 17.4456C8.69161 17.28 8.34784 17.2834 8.0775 17.4544C6.71163 17.9692 5.75941 19.2184 5.625 20.6719C5.625 23.1694 9 25.0481 13.5 25.0481C18 25.0481 21.375 23.1694 21.375 20.6719C21.253 19.2058 20.2987 17.9406 18.9225 17.4206Z" fill="white"/>
<path fill-rule="evenodd" clip-rule="evenodd" d="M12.6563 21.1669V16.3069C8.95151 15.8605 6.23534 12.6059 6.45892 8.88112C6.6825 5.15628 9.76846 2.25 13.5 2.25C17.2315 2.25 20.3175 5.15628 20.5411 8.88112C20.7647 12.6059 18.0485 15.8605 14.3438 16.3069V21.1669C14.3438 21.6328 13.966 22.0106 13.5 22.0106C13.034 22.0106 12.6563 21.6328 12.6563 21.1669ZM18.4773 7.24627C17.642 5.23582 15.677 3.9273 13.5 3.93185C10.5389 3.93804 8.13994 6.33697 8.13375 9.2981C8.1292 11.4751 9.43772 13.4401 11.4482 14.2754C13.4586 15.1106 15.7743 14.6512 17.3137 13.1118C18.8531 11.5724 19.3125 9.25672 18.4773 7.24627Z" fill="white"/>
<path d="M10.7888 10.5469C11.2547 10.5469 11.6325 10.1691 11.6325 9.7031C11.6325 8.41076 12.6802 7.3631 13.9725 7.3631C14.4385 7.3631 14.8163 6.98534 14.8163 6.51935C14.8163 6.05336 14.4385 5.6756 13.9725 5.6756C12.9014 5.67858 11.8753 6.10695 11.12 6.86648C10.3647 7.626 9.94201 8.65446 9.945 9.7256C9.94797 9.9464 10.0385 10.157 10.1968 10.311C10.355 10.465 10.568 10.5499 10.7888 10.5469Z" fill="white"/>
</svg>
